<svg width="90" height="90" viewBox="0 0 90 90" fill="none" xmlns="http://www.w3.org/2000/svg">
<path d="M0 90H90V0H0V90Z" fill="#1B1B1B"/>
<path d="M67.5635 49.4371C69.3135 48.6871 70.751 47.6246 71.751 46.1871C72.8135 44.7496 73.3135 42.9996 73.3135 40.8121V40.7496C73.3135 37.9996 72.501 35.8121 70.8135 34.2496C69.876 33.3121 68.6885 32.5621 67.1885 31.9996C65.6885 31.4371 63.876 31.1871 61.6885 31.1871H48.501V36.2496C45.876 32.7496 41.626 30.4371 36.876 30.4371C30.876 30.4371 25.751 34.0621 23.501 39.2496V31.1871H15.751V59.1246H23.5635V50.7496C25.8135 55.9371 30.9385 59.5621 36.9385 59.5621C41.6885 59.5621 45.9385 57.3121 48.5635 53.7496V59.1871H56.251V50.6871H59.626L65.251 59.1871H74.1885L67.5635 49.4371ZM65.5635 41.2496V41.3121C65.5635 42.3121 65.1885 43.1246 64.501 43.7496C63.751 44.3746 62.751 44.6246 61.4385 44.6246H56.251V37.9371H61.3135C62.626 37.9371 63.626 38.1871 64.376 38.7496C65.1885 39.3121 65.5635 40.1246 65.5635 41.2496ZM42.501 41.9996C44.501 41.3746 46.501 40.8121 48.501 40.1871V49.8121C46.501 49.1871 44.501 48.6246 42.501 47.9996C41.4385 49.9996 39.3135 51.4371 36.876 51.4371C33.376 51.4371 30.501 48.5621 30.501 45.0621C30.501 41.5621 33.376 38.6871 36.876 38.6871C39.3135 38.6246 41.4385 39.9996 42.501 41.9996Z" fill="white"/>
</svg>
